PathFileType	4	(X/Y/Z)	C:/Users/empri/Downloads/Take 2024-05-09 02.19.22 PM.trc
DataRate	CameraRate	NumFrames	NumMarkers	Units	OrigDataRate	OrigDataStartFrame	OrigNumFrames
240	240	34	9	mm	240	518	830
Frame#	Time	C7	CLAV	RELB	RFIN	RFRM	RSHO	RUPA	RWRA	RWRB
X1	Y1	Z1	X2	Y2	Z2	X3	Y3	Z3	X4	Y4	Z4	X5	Y5	Z5	X6	Y6	Z6	X7	Y7	Z7	X8	Y8	Z8	X9	Y9	Z9
518	2.158	-123.695	1540.14	-32.9443	32.6877	1365.88	-134.959	177.999	1205.91	51.6039	226.166	1418.62	-116.143	209.48	1214.35	-49.3276	31.6129	1481.78	70.7532	101.36	1331.78	101.041	177.409	1350.55	-76.1127	165.243	1305.74	-160.792
519	2.163	-123.778	1540.13	-32.9672	32.6986	1366.02	-135.375	177.538	1205	52.9448	229.516	1414.71	-118.288	209.929	1211.67	-48.0943	31.4965	1481.77	70.8426	100.989	1331.45	101.773	179.599	1347.61	-77.5998	167.362	1301.59	-161.438
520	2.167	-123.836	1540.13	-32.9841	32.7089	1366.08	-135.655	177.149	1204.33	54.0364	232.134	1411.38	-120.002	210.244	1209.56	-46.9525	31.4081	1481.76	70.909	100.663	1331.29	102.421	181.376	1345.33	-78.7147	169.052	1298.19	-161.907
521	2.171	-123.909	1540.15	-32.9999	32.6226	1366.08	-135.613	176.774	1203.65	55.1301	234.792	1407.87	-121.81	210.566	1207.47	-45.8726	31.3073	1481.74	70.9703	100.321	1331.13	103.116	183.065	1342.92	-79.7792	170.754	1294.7	-162.373
522	2.175	-123.96	1540.15	-33.0209	32.5578	1366.08	-135.585	176.382	1202.93	56.315	237.328	1404.28	-123.511	210.857	1205.28	-44.7271	31.2156	1481.73	71.0353	99.9978	1330.99	103.754	184.722	1340.45	-80.8621	172.458	1291.12	-162.77
523	2.179	-124.019	1540.14	-33.0489	32.5075	1366.06	-135.577	176.03	1202.33	57.4105	239.842	1400.56	-125.153	211.223	1203.15	-43.5692	31.1239	1481.72	71.0913	99.6121	1330.85	104.412	186.398	1337.95	-81.813	174.18	1287.48	-163.122
524	2.183	-124.071	1540.15	-33.0696	32.4475	1366.05	-135.56	175.678	1201.67	58.6167	242.346	1396.72	-126.83	211.487	1200.94	-42.3657	31.0277	1481.74	71.1483	99.2523	1330.71	105.058	188.06	1335.33	-82.8962	175.895	1283.7	-163.423
525	2.188	-124.144	1540.16	-33.0998	32.3801	1366.05	-135.556	175.198	1200.94	60.1139	245.544	1391.9	-128.843	211.818	1198.21	-40.8642	30.918	1481.77	71.2184	98.8056	1330.58	105.895	190.111	1331.96	-84.2263	178.027	1278.97	-163.783
526	2.192	-124.227	1540.18	-33.1186	32.3188	1366.05	-135.544	174.794	1200.28	61.2191	248.104	1387.9	-130.389	212.061	1195.95	-39.6027	30.8304	1481.79	71.2741	98.4343	1330.47	106.567	191.727	1329.33	-85.2613	179.704	1275.17	-164.085
527	2.196	-124.278	1540.2	-33.1402	32.2565	1366.03	-135.535	174.2	1199.45	62.2407	250.531	1383.84	-131.853	212.272	1193.62	-38.3573	30.7445	1481.8	71.3195	98.1115	1330.41	107.155	193.341	1326.5	-86.3395	181.41	1271.19	-164.31
528	2.2	-124.336	1540.21	-33.1648	32.1994	1366.01	-135.511	173.395	1198.79	63.2947	252.979	1379.65	-133.279	212.48	1191.34	-37.046	30.655	1481.82	71.3637	97.7557	1330.29	107.774	194.945	1323.62	-87.3192	183.176	1267.08	-164.403
529	2.204	-124.411	1540.23	-33.1885	32.1443	1366	-135.489	172.901	1198.17	64.4127	255.358	1375.41	-134.608	212.699	1189	-35.7306	30.5577	1481.84	71.4095	97.4047	1330.21	108.411	196.573	1320.59	-88.2923	184.906	1262.93	-164.531
530	2.208	-124.486	1540.24	-33.2189	32.0875	1366	-135.472	172.353	1197.53	65.5287	257.821	1371.11	-135.972	212.88	1186.61	-34.4145	30.4572	1481.86	71.4512	97.0882	1330.11	108.974	198.269	1317.55	-89.22	186.729	1258.65	-164.61
531	2.212	-124.554	1540.26	-33.2436	32.0285	1365.98	-135.436	171.841	1196.86	66.6549	260.342	1366.75	-137.366	213.023	1184.2	-33.0362	30.3613	1481.87	71.488	96.7518	1330.04	109.548	199.982	1314.46	-90.0921	188.535	1254.33	-164.69
532	2.217	-124.642	1540.28	-33.2782	31.9405	1365.97	-135.395	171.192	1196.07	68.0631	263.297	1361.09	-139.001	213.28	1181.25	-31.355	30.2417	1481.89	71.5426	96.3144	1329.94	110.253	202.036	1310.48	-91.2031	190.701	1248.79	-164.618
533	2.221	-124.703	1540.3	-33.3032	31.8793	1365.98	-135.374	170.589	1195.37	69.163	265.746	1356.48	-140.251	213.404	1178.88	-29.8945	30.1484	1481.9	71.583	96.0061	1329.89	110.816	203.688	1307.2	-91.954	192.368	1244.34	-164.517
534	2.225	-124.769	1540.3	-33.3326	31.809	1365.95	-135.332	169.957	1194.83	70.3998	268.121	1351.74	-141.478	213.433	1176.52	-28.4178	30.0532	1481.91	71.6323	95.6842	1329.82	111.433	205.315	1303.83	-92.7942	194.009	1239.78	-164.287
535	2.229	-124.843	1540.3	-33.3668	31.7556	1365.95	-135.294	169.525	1194.38	71.5475	270.467	1346.86	-142.618	213.405	1174.11	-27.0243	29.9655	1481.91	71.6817	95.3897	1329.75	111.969	206.898	1300.34	-93.5478	195.552	1235.27	-164.034
536	2.233	-124.916	1540.3	-33.4092	31.7007	1365.93	-135.252	168.879	1193.51	72.5048	272.782	1342.03	-143.734	213.573	1171.71	-25.5391	29.8704	1481.91	71.7865	95.0905	1329.63	112.538	208.522	1296.83	-94.3033	197.087	1230.65	-163.652
537	2.237	-124.975	1540.31	-33.4492	31.6394	1365.93	-135.217	168.457	1192.94	73.6012	275.056	1337.07	-144.738	213.559	1169.24	-24.1797	29.7919	1481.9	71.8443	94.7491	1329.56	113.146	210.083	1293.26	-95.0125	198.556	1225.98	-163.29
538	2.242	-125.051	1540.32	-33.49	31.5648	1365.93	-135.192	167.763	1192.26	75.0711	277.94	1330.79	-145.835	213.441	1166.21	-22.2879	29.7115	1481.89	71.9082	94.3735	1329.47	113.828	212.016	1288.79	-95.7924	200.305	1220.16	-162.695
539	2.246	-125.098	1540.32	-33.5285	31.5037	1365.92	-135.173	167.172	1191.94	76.4569	280.128	1325.71	-146.751	213.557	1163.86	-20.7702	29.6537	1481.86	71.9642	94.0627	1329.37	114.333	213.578	1285.22	-96.3728	201.588	1215.54	-162.14
540	2.25	-125.141	1540.33	-33.5603	31.449	1365.91	-135.155	166.728	1191.1	77.2773	282.258	1320.73	-147.421	213.572	1161.44	-19.3441	29.588	1481.84	72.0458	93.6662	1329.26	114.916	215.145	1281.6	-96.7589	202.847	1210.98	-161.585
541	2.254	-125.181	1540.33	-33.5909	31.3989	1365.91	-135.155	166.313	1190.34	78.2752	284.278	1315.67	-147.969	213.527	1159.02	-17.8478	29.5472	1481.82	72.0959	93.3919	1329.14	115.453	216.641	1277.91	-97.2079	203.971	1206.56	-161.049
542	2.258	-125.21	1540.34	-33.6072	31.3573	1365.91	-135.154	165.823	1189.69	79.3645	286.157	1310.58	-148.522	213.469	1156.6	-16.3859	29.5141	1481.79	72.1383	93.1501	1328.98	115.915	218.088	1274.27	-97.6415	205.164	1202	-160.374
543	2.263	-125.251	1540.34	-33.6407	31.2985	1365.92	-135.165	165.216	1188.91	80.6193	288.438	1304.24	-149.089	213.424	1153.67	-14.49	29.4809	1481.77	72.2002	92.798	1328.81	116.465	219.751	1269.6	-98.143	206.723	1196.04	-159.398
544	2.267	-125.267	1540.36	-33.6556	31.25	1365.92	-135.175	164.685	1188.2	81.6814	290.25	1299.41	-149.331	213.326	1151.3	-12.9507	29.4568	1481.76	72.2407	92.497	1328.7	116.924	220.917	1265.85	-98.5258	208.058	1191.18	-158.455
545	2.271	-125.287	1540.38	-33.6665	31.2081	1365.92	-135.186	164.182	1187.58	82.6881	291.929	1294.51	-149.618	213.233	1148.95	-11.3999	29.4401	1481.75	72.2727	92.1832	1328.66	117.45	221.966	1262.14	-98.9555	209.361	1186.33	-157.555
546	2.275	-125.297	1540.39	-33.6724	31.1777	1365.91	-135.205	163.641	1186.92	83.7038	293.467	1289.55	-149.914	213.091	1146.65	-9.77087	29.4246	1481.74	72.3083	91.9256	1328.47	117.973	222.927	1258.43	-99.2979	210.718	1181.53	-156.71
547	2.279	-125.313	1540.4	-33.6791	31.1462	1365.91	-135.216	163.081	1186.29	84.6958	294.86	1284.62	-150.201	212.951	1144.3	-8.13386	29.4053	1481.72	72.3386	91.6192	1328.34	118.431	223.964	1254.59	-99.5872	212.12	1177.04	-156.152
548	2.283	-125.33	1540.41	-33.6953	31.1182	1365.92	-135.235	162.501	1185.64	85.6874	296.196	1279.68	-150.449	212.812	1142.1	-6.46576	29.4	1481.7	72.3683	91.3017	1328.24	118.861	224.867	1250.81	-99.8668	213.522	1172.66	-155.82
549	2.288	-125.335	1540.41	-33.7185	31.0619	1365.89	-135.273	161.805	1184.82	86.9419	297.816	1273.57	-150.539	212.59	1139.38	-4.33059	29.3959	1481.67	72.3949	90.9185	1328	119.409	225.945	1246.12	-100.13	215.301	1167.17	-155.192
550	2.292	-125.338	1540.4	-33.7638	31.0321	1365.88	-135.286	161.227	1184.26	87.9464	299.078	1268.76	-150.564	212.35	1137.1	-2.7007	29.3956	1481.63	72.4147	90.626	1327.97	119.847	226.756	1242.35	-100.38	216.7	1162.93	-154.758
551	2.296	-125.325	1540.41	-33.7837	31.0118	1365.88	-135.296	160.631	1183.66	88.9061	300.284	1263.84	-150.614	212.207	1134.99	-1.04143	29.4013	1481.6	72.4306	90.3769	1327.87	120.277	227.566	1238.58	-100.497	217.971	1158.64	-154.041
